<?xml version="1.0" encoding="UTF-8" standalone="no"?>
<!-- Uploaded to: SVG Repo, www.svgrepo.com, Transformed by: SVG Repo Mixer Tools -->

<svg
   width="60"
   height="50"
   viewBox="0 0 480 400"
   version="1.1"
   fill="#000000"
   id="svg365"
   sodipodi:docname="history.svg"
   inkscape:version="1.2.2 (732a01da63, 2022-12-09)"
   xmlns:inkscape="http://www.inkscape.org/namespaces/inkscape"
   xmlns:sodipodi="http://sodipodi.sourceforge.net/DTD/sodipodi-0.dtd"
   xmlns="http://www.w3.org/2000/svg"
   xmlns:svg="http://www.w3.org/2000/svg">
  <defs
     id="defs369" />
  <sodipodi:namedview
     id="namedview367"
     pagecolor="#ffffff"
     bordercolor="#000000"
     borderopacity="0.25"
     inkscape:showpageshadow="2"
     inkscape:pageopacity="0.0"
     inkscape:pagecheckerboard="0"
     inkscape:deskcolor="#d1d1d1"
     showgrid="false"
     inkscape:zoom="8.203125"
     inkscape:cx="31.451429"
     inkscape:cy="22.308571"
     inkscape:window-width="1366"
     inkscape:window-height="705"
     inkscape:window-x="-8"
     inkscape:window-y="-8"
     inkscape:window-maximized="1"
     inkscape:current-layer="SVGRepo_iconCarrier" />
  <g
     id="SVGRepo_bgCarrier"
     stroke-width="0" />
  <g
     id="SVGRepo_tracerCarrier"
     stroke-linecap="round"
     stroke-linejoin="round" />
  <g
     id="SVGRepo_iconCarrier"
     transform="translate(-0.915057,-45.272381)">
    <title
       id="title359">history</title>
    <g
       id="Page-1"
       stroke-width="0.00512"
       fill="none"
       fill-rule="evenodd"
       transform="translate(0,-10.727619)">
      <g
         id="icon"
         fill="#000000"
         transform="translate(12.496777,64)">
        <path
           d="m 264.83656,0 c 106.03867,0 192,85.961328 192,192 0,106.03867 -85.96133,192 -192,192 -52.07358,0 -99.30529,-20.73048 -133.89254,-54.38883 l 29.75453,-30.57965 c 26.90114,26.17836 63.63666,42.30181 104.13801,42.30181 82.47452,0 149.33333,-66.85881 149.33333,-149.33333 0,-82.47452 -66.85881,-149.333333 -149.33333,-149.333333 -82.47453,0 -149.33334,66.858813 -149.33334,149.333333 0,4.04224 0.16061,8.04696 0.47579,12.00814 L 158.16989,161.83011 188.33978,192 94.169889,286.16989 0,192 30.169889,161.83011 73.264106,204.91572 C 72.980579,200.64713 72.836556,196.34038 72.836556,192 72.836556,85.961328 158.79788,0 264.83656,0 Z m 21.33333,106.66667 v 95.14666 l 54.4,36.48 -23.46667,35.41334 -73.6,-48.85334 V 106.66667 Z"
           id="Combined-Shape" />
      </g>
    </g>
  </g>
</svg>
