<?xml version="1.0" encoding="UTF-8" standalone="no"?>
<!-- Created with Inkscape (http://www.inkscape.org/) -->

<svg
   version="1.1"
   id="svg132"
   width="450"
   height="500"
   viewBox="0 0 450 500"
   sodipodi:docname="logi2n.svg"
   inkscape:version="1.2.2 (732a01da63, 2022-12-09)"
   xmlns:inkscape="http://www.inkscape.org/namespaces/inkscape"
   xmlns:sodipodi="http://sodipodi.sourceforge.net/DTD/sodipodi-0.dtd"
   xmlns="http://www.w3.org/2000/svg"
   xmlns:svg="http://www.w3.org/2000/svg">
  <defs
     id="defs136" />
  <sodipodi:namedview
     id="namedview134"
     pagecolor="#ffffff"
     bordercolor="#000000"
     borderopacity="0.25"
     inkscape:showpageshadow="2"
     inkscape:pageopacity="0.0"
     inkscape:pagecheckerboard="0"
     inkscape:deskcolor="#d1d1d1"
     showgrid="false"
     inkscape:zoom="0.50383782"
     inkscape:cx="648.02599"
     inkscape:cy="265.9586"
     inkscape:window-width="1366"
     inkscape:window-height="705"
     inkscape:window-x="-8"
     inkscape:window-y="-8"
     inkscape:window-maximized="1"
     inkscape:current-layer="layer1" />
  <g
     inkscape:groupmode="layer"
     id="layer1"
     inkscape:label="2">
    <path
       id="rect353"
       style="fill:#c83c3c;fill-opacity:0.660057;stroke:#000000;stroke-width:0;stroke-linejoin:round;stroke-dasharray:none"
       d="m 143.20156,10.351562 c -35.99413,0 -64.972655,28.976581 -64.972655,64.970711 V 100.96094 H 132.54921 V 74.837893 c 0,-5.63188 4.53414,-10.16601 10.16602,-10.16601 h 232.09961 c 5.63188,0 10.16602,4.53413 10.16602,10.16601 V 423.0332 c 0,5.6319 -4.53414,10.16602 -10.16602,10.16602 H 142.71523 c -5.63188,0 -10.16601,-4.53412 -10.16602,-10.16602 V 396.91016 H 78.228905 v 27.76758 c 0,35.99412 28.978525,64.9707 64.972655,64.9707 h 230.0625 c 35.99412,0 64.9707,-28.97658 64.9707,-64.9707 V 75.322273 c 0,-35.99413 -28.97658,-64.970711 -64.9707,-64.970711 z" />
    <path
       id="rect1489"
       style="fill:#c83c3c;fill-opacity:0.660057;stroke:#000000;stroke-width:0;stroke-linejoin:round;stroke-dasharray:none"
       d="m 134.68007,131.77344 v 63.90625 H 11.908595 V 304.32031 H 134.68007 v 63.90625 L 299.77187,250 Z" />
  </g>
</svg>
