<?xml version="1.0" encoding="UTF-8" standalone="no"?>
<svg
   height="370"
   width="950"
   version="1.0"
   viewBox="-150 -75.3385 1029.1666 209.06434"
   id="svg8"
   sodipodi:docname="logo.svg"
   inkscape:version="1.2.2 (732a01da63, 2022-12-09)"
   xmlns:inkscape="http://www.inkscape.org/namespaces/inkscape"
   xmlns:sodipodi="http://sodipodi.sourceforge.net/DTD/sodipodi-0.dtd"
   xmlns="http://www.w3.org/2000/svg"
   xmlns:svg="http://www.w3.org/2000/svg">
  <defs
     id="defs12" />
  <sodipodi:namedview
     id="namedview10"
     pagecolor="#ffffff"
     bordercolor="#000000"
     borderopacity="0.25"
     inkscape:showpageshadow="2"
     inkscape:pageopacity="0.0"
     inkscape:pagecheckerboard="0"
     inkscape:deskcolor="#d1d1d1"
     showgrid="false"
     inkscape:zoom="0.52746937"
     inkscape:cx="674.92071"
     inkscape:cy="348.83542"
     inkscape:window-width="1366"
     inkscape:window-height="705"
     inkscape:window-x="-8"
     inkscape:window-y="-8"
     inkscape:window-maximized="1"
     inkscape:current-layer="svg8" />
  <g
     aria-label="i"
     id="text1059"
     style="font-weight:bold;font-size:721.5px;font-family:Calibri;-inkscape-font-specification:'Calibri Bold';opacity:1;fill:#ff0000;stroke:#0a00e5;stroke-width:0;stroke-linecap:round;stroke-linejoin:round;paint-order:markers fill stroke" />
  <text
     xml:space="preserve"
     style="font-style:normal;font-variant:normal;font-weight:bold;font-stretch:normal;font-size:4.33333px;font-family:Calibri;-inkscape-font-specification:'Calibri Bold';opacity:1;fill:#000000;fill-opacity:1;stroke:#0a00e5;stroke-width:0;stroke-linecap:round;stroke-linejoin:round;paint-order:markers fill stroke"
     x="941.04254"
     y="121.6971"
     id="text1916"><tspan
       sodipodi:role="line"
       id="tspan1914"
       style="font-size:4.33333px;stroke-width:0"
       x="941.04254"
       y="121.6971" /></text>
  <g
     id="g5593"
     transform="translate(2.0538316,-4.1076632)">
    <path
       d="m 478.65945,163.55724 c -58.111,42.833 -142.34,65.686 -214.86,65.686 -101.685,0 -193.227008,-37.61 -262.4830077,-100.161 -5.44,-4.92 -0.56499998,-11.623 5.964,-7.792 74.7399997,43.486 167.1530077,69.647 262.6130077,69.647 64.38,0 135.202,-13.32 200.322,-40.961 9.837,-4.179 18.064,6.442 8.444,13.581"
       fill="#ff9900"
       fill-rule="evenodd"
       id="path2-5" />
    <path
       d="m 502.81945,135.91624 c -7.4,-9.49 -49.102,-4.484 -67.82,-2.264 -5.702,0.697 -6.572,-4.266 -1.436,-7.835 33.213,-23.375 87.712,-16.628 94.067,-8.793 6.355,7.879 -1.654,62.508 -32.865,88.582 -4.788,4.005 -9.359,1.872 -7.226,-3.439 7.009,-17.498 22.723,-56.718 15.28,-66.251"
       fill="#ff9900"
       fill-rule="evenodd"
       id="path4-6" />
    <path
       d="m 436.30545,-39.202764 v -22.722 c 0,-3.439 2.612,-5.746 5.746,-5.746 h 101.728 c 3.265,0 5.877,2.35 5.877,5.746 v 19.457 c -0.044,3.265 -2.786,7.531 -7.661,14.278 l -52.714,75.262003 c 19.588,-0.478 40.264,2.438 58.024,12.45 4.005,2.263 5.093,5.572 5.398,8.836 v 24.246 c 0,3.308 -3.657,7.182 -7.487,5.18 -31.298,-16.41 -72.868,-18.195 -107.474,0.174 -3.526,1.916 -7.226,-1.915 -7.226,-5.223 v -23.027 c 0,-3.7 0.043,-10.012 3.743,-15.627 l 61.072,-87.581003 h -53.15 c -3.264,0 -5.876,-2.307 -5.876,-5.703 M 65.218442,102.57224 h -30.95 c -2.96,-0.217 -5.31,-2.437 -5.528,-5.267001 V -61.532764 c 0,-3.178 2.655,-5.703 5.963,-5.703 h 28.86 c 3.004,0.13 5.398,2.438 5.616,5.31 v 20.765 h 0.566 c 7.53,-20.067 21.677,-29.425 40.743008,-29.425 19.37,0 31.472,9.358 40.178,29.425 7.487,-20.067 24.507,-29.425 42.746,-29.425 12.971,0 27.162,5.354 35.824,17.368 9.794,13.363 7.792,32.777 7.792,49.7969998 l -0.044,100.2480032 c 0,3.178001 -2.655,5.746001 -5.963,5.746001 h -30.906 c -3.09,-0.217 -5.572,-2.698001 -5.572,-5.746001 V 12.641236 c 0,-6.7040002 0.61,-23.42 -0.87,-29.774 -2.307,-10.665 -9.228,-13.669 -18.196,-13.669 -7.487,0 -15.322,5.006 -18.5,13.016 -3.177,8.0099998 -2.872,21.4159998 -2.872,30.427 v 84.185003 c 0,3.178001 -2.656,5.746001 -5.964,5.746001 h -30.906 c -3.134,-0.217 -5.572,-2.698001 -5.572,-5.746001 l -0.043,-84.185003 c 0,-17.7170002 2.916,-43.79 -19.066008,-43.79 -22.243,0 -21.373,25.4199998 -21.373,43.79 v 84.185003 c 0,3.178001 -2.655,5.746001 -5.963,5.746001 m 643.845998,0 h -30.819 c -3.09,-0.217 -5.572,-2.698001 -5.572,-5.746001 l -0.043,-158.882003 c 0.26,-2.916 2.83,-5.18 5.963,-5.18 h 28.686 c 2.699,0.13 4.919,1.96 5.528,4.44 v 24.29 h 0.566 c 8.663,-21.721 20.807,-32.081 42.18,-32.081 13.886,0 27.424,5.005 36.13004,18.717 8.096,12.71 8.096,34.084 8.096,49.4499998 V 97.566239 c -0.348,2.786001 -2.916,5.006001 -5.963,5.006001 h -31.03704 c -2.83,-0.217 -5.18,-2.307 -5.485,-5.006001 V 11.291236 c 0,-17.3680002 2.003,-42.79 -19.37,-42.79 -7.53,0 -14.452,5.05 -17.89,12.711 -4.354,9.7079998 -4.92,19.37099981 -4.92,30.08 v 85.534003 c -0.043,3.178001 -2.742,5.746001 -6.05,5.746001 M 355.21045,26.701239 c 0,12.057 0.305,22.113 -5.79,32.82 -4.918,8.707 -12.753,14.06 -21.416,14.06 -11.883,0 -18.848,-9.053 -18.848,-22.417 0,-26.379 23.637,-31.167 46.054,-31.167 v 6.704 m 31.21,75.436001 c -2.045,1.828 -5.005,1.959 -7.312,0.74 -10.273,-8.532001 -12.145,-12.493001 -17.76,-20.633001 -16.977,17.325 -29.034,22.505001 -51.017,22.505001 -26.074,0 -46.315,-16.063001 -46.315,-48.230001 0,-25.117 13.581,-42.224 32.995,-50.5820032 16.803,-7.4 40.265,-8.706 58.2,-10.752 v -4.004 c 0,-7.3569998 0.565,-16.0629998 -3.788,-22.4179998 -3.743,-5.702 -10.97,-8.053 -17.368,-8.053 -11.797,0 -22.287,6.05 -24.855,18.587 -0.523,2.786 -2.569,5.528 -5.398,5.659 l -29.992,-3.221 c -2.524,-0.566 -5.354,-2.612 -4.614,-6.486 6.878,-36.39 39.786,-47.36 69.213,-47.36 15.061,0 34.736,4.005 46.62,15.41 15.06,14.06 13.624,32.82 13.624,53.2359998 V 44.765239 c 0,14.496 6.008,20.85 11.666,28.686 1.96,2.786 2.394,6.138 -0.13,8.227 -6.312,5.267 -17.543,15.061 -23.724,20.546001 l -0.043,-0.087 M -50.526559,26.701239 c 0,12.057 0.305,22.113 -5.79,32.82 -4.918,8.707 -12.71,14.06 -21.416,14.06 -11.883,0 -18.805,-9.053 -18.805,-22.417 0,-26.379 23.637,-31.167 46.011,-31.167 v 6.704 m 31.210001,75.436001 c -2.045,1.828 -5.005,1.959 -7.312,0.74 -10.273,-8.532001 -12.102,-12.493001 -17.76,-20.633001 -16.977001,17.325 -28.990001,22.505001 -51.017001,22.505001 -26.030001,0 -46.314991,-16.063001 -46.314991,-48.230001 0,-25.117 13.625,-42.224 32.99499,-50.5820032 16.803001,-7.4 40.265001,-8.706 58.199001,-10.752 v -4.004 c 0,-7.3569998 0.566,-16.0629998 -3.744,-22.4179998 -3.787,-5.702 -11.012,-8.053 -17.368,-8.053 -11.796,0 -22.33,6.05 -24.899,18.587 -0.522,2.786 -2.568,5.528 -5.354001,5.659 l -30.03499,-3.221 c -2.525,-0.566 -5.31,-2.612 -4.614,-6.486 6.921,-36.39 39.785991,-47.36 69.211991,-47.36 15.06,0 34.736001,4.005 46.620001,15.41 15.0600003,14.06 13.6240003,32.82 13.6240003,53.2359998 V 44.765239 c 0,14.496 6.007,20.85 11.666,28.686 2.003,2.786 2.438,6.138 -0.087,8.227 -6.312,5.267 -17.5420003,15.061 -23.7230003,20.546001 l -0.087,-0.087"
       fill-rule="evenodd"
       id="path6-7"
       sodipodi:nodetypes="csssscccccsccssccsccccssccccscscccscsscscssscccssscccccsccccscscsccsscsccccsscccccssccscsccccscssccccccsscccccssccscsccccscsscccc" />
    <g
       id="g1926"
       transform="translate(-143.86205,-269.05197)">
      <rect
         style="fill:#000000;fill-opacity:1;stroke:#0a00e5;stroke-width:0;stroke-linecap:round;stroke-linejoin:round;paint-order:markers fill stroke"
         id="rect1328"
         width="42.369915"
         height="169.79868"
         x="729.67401"
         y="204.00253"
         ry="5.5829053" />
      <rect
         style="fill:#000000;fill-opacity:1;stroke:#0a00e5;stroke-width:0;stroke-linecap:round;stroke-linejoin:round;paint-order:markers fill stroke"
         id="rect1328-4"
         width="42.734001"
         height="34.013233"
         x="729.49194"
         y="147.33008"
         ry="5.7924924" />
    </g>
    <text
       xml:space="preserve"
       style="font-style:normal;font-variant:normal;font-weight:bold;font-stretch:normal;font-size:314.382px;font-family:'BIZ UDGothic';-inkscape-font-specification:'BIZ UDGothic Bold';opacity:1;fill:#000000;fill-opacity:1;stroke:#0a00e5;stroke-width:0;stroke-linecap:round;stroke-linejoin:round;paint-order:markers fill stroke"
       x="798.2912"
       y="109.62619"
       id="text1920"><tspan
         sodipodi:role="line"
         id="tspan1918"
         style="font-style:normal;font-variant:normal;font-weight:bold;font-stretch:normal;font-size:314.382px;font-family:'BIZ UDGothic';-inkscape-font-specification:'BIZ UDGothic Bold';stroke-width:0"
         x="798.2912"
         y="109.62619">'</tspan></text>
  </g>
</svg>
